<?xml version="1.0" encoding="UTF-8" standalone="no"?>

<svg
   xmlns:dc="http://purl.org/dc/elements/1.1/"
   xmlns:cc="http://creativecommons.org/ns#"
   xmlns:rdf="http://www.w3.org/1999/02/22-rdf-syntax-ns#"
   xmlns:svg="http://www.w3.org/2000/svg"
   xmlns="http://www.w3.org/2000/svg"
   version="1.1"
   width="1000"
   height="1000">
  <g
     transform="translate(0,-52.362183)"
     id="layer1">
    <g
       transform="translate(0,-16.313317)"
       id="g3901">
      <path
         d="m 99.225026,614.15315 138.059924,0 85.62814,216.52064 -309.31621,0 z"
         id="rect2985"
         style="fill:#77bbff;fill-opacity:1;fill-rule:nonzero;stroke:#007eff;stroke-width:27.19375992;stroke-linecap:round;stroke-linejoin:round;stroke-miterlimit:4;stroke-opacity:1;stroke-dasharray:none" />
      <rect
         width="34.187496"
         height="13.596902"
         x="4.0893553e-008"
         y="830.67377"
         id="rect3851-8"
         style="fill:#0080ff;fill-opacity:1;fill-rule:nonzero;stroke:none" />
    </g>
    <g
       transform="translate(0,-16.313317)"
       id="g3879">
      <path
         d="m 762.71506,614.15315 138.05991,0 85.62815,216.52064 -309.3162,0 z"
         id="path3785"
         style="fill:#b7bec8;fill-opacity:1;fill-rule:nonzero;stroke:#666666;stroke-width:27.19375992;stroke-linecap:round;stroke-linejoin:round;stroke-miterlimit:4;stroke-opacity:1;stroke-dasharray:none" />
      <rect
         width="34.187496"
         height="13.596902"
         x="965.8125"
         y="830.67377"
         id="rect3851"
         style="fill:#666666;fill-opacity:1;fill-rule:nonzero;stroke:none" />
    </g>
    <path
       d="m 585.86737,597.83983 138.05995,0 85.62814,216.52064 -309.31622,0 z"
       id="path3781"
       style="fill:#b7bec8;fill-opacity:1;fill-rule:nonzero;stroke:#666666;stroke-width:27.19375992;stroke-linecap:round;stroke-linejoin:round;stroke-miterlimit:4;stroke-opacity:1;stroke-dasharray:none" />
    <path
       d="m 407.98551,597.83983 138.05991,0 85.62812,216.52064 -309.31619,0 z"
       id="path3775"
       style="fill:#b7bec8;fill-opacity:1;fill-rule:nonzero;stroke:#666666;stroke-width:27.19375992;stroke-linecap:round;stroke-linejoin:round;stroke-miterlimit:4;stroke-opacity:1;stroke-dasharray:none" />
    <path
       d="m 322.94542,812.95735 0,-443.75705"
       id="path3841"
       style="fill:none;stroke:#000000;stroke-width:30;stroke-linecap:square;stroke-linejoin:miter;stroke-miterlimit:4;stroke-opacity:1;stroke-dasharray:none" />
    <g
       transform="translate(0,53.686683)"
       id="g3847">
      <path
         d="m 433,331 531,0 0,146"
         transform="translate(0,52.362183)"
         id="path3843"
         style="fill:none;stroke:#000000;stroke-width:30;stroke-linecap:butt;stroke-linejoin:miter;stroke-miterlimit:4;stroke-opacity:1;stroke-dasharray:none" />
      <path
         d="m 928.00001,518.03062 71.99999,0 -36.00003,83.25415 z"
         id="path3845"
         style="fill:#000000;fill-opacity:1;stroke:none" />
    </g>
    <path
       d="m 310.13469,306.35828 138.05994,0 85.62813,216.52064 -309.31618,0 z"
       id="path3787"
       style="fill:#b7bec8;fill-opacity:1;fill-rule:nonzero;stroke:#0080ff;stroke-width:27.19375992;stroke-linecap:round;stroke-linejoin:round;stroke-miterlimit:4;stroke-opacity:1;stroke-dasharray:none" />
    <rect
       width="34.187496"
       height="13.596902"
       x="210.9097"
       y="522.87891"
       id="rect3851-8-8"
       style="fill:#0080ff;fill-opacity:1;fill-rule:nonzero;stroke:none" />
    <rect
       width="34.187496"
       height="13.596902"
       x="513.23212"
       y="522.87891"
       id="rect3851-8-2"
       style="fill:#0080ff;fill-opacity:1;fill-rule:nonzero;stroke:none" />
    <g
       id="g3836">
      <path
         d="m 440.4375,204.78125 0,7.5 0,62.09375 -62,0 -7.5,0 0,7.5 0,36.5625 0,7.5 7.5,0 62,0 0,62 0,7.5 7.5,0 36.5625,0 7.5,0 0,-7.5 0,-62 62.125,0 7.5,0 0,-7.5 0,-36.5625 0,-7.5 -7.5,0 -62.125,0 0,-62.09375 0,-7.5 -7.5,0 -36.5625,0 -7.5,0 z m 15,15 21.5625,0 0,62.09375 0,7.5 7.5,0 62.125,0 0,21.5625 -62.125,0 -7.5,0 0,7.5 0,62 -21.5625,0 0,-62 0,-7.5 -7.5,0 -62,0 0,-21.5625 62,0 7.5,0 0,-7.5 0,-62.09375 z"
         id="path3791"
         style="font-size:medium;font-style:normal;font-variant:normal;font-weight:normal;font-stretch:normal;text-indent:0;text-align:start;text-decoration:none;line-height:normal;letter-spacing:normal;word-spacing:normal;text-transform:none;direction:ltr;block-progression:tb;writing-mode:lr-tb;text-anchor:start;baseline-shift:baseline;color:#000000;fill:#009a00;fill-opacity:1;fill-rule:nonzero;stroke:none;stroke-width:15;marker:none;visibility:visible;display:inline;overflow:visible;enable-background:accumulate;font-family:Sans;-inkscape-font-specification:Sans" />
      <path
         d="m 546.625,258.57532 -69.625,0 0,69.5 -21.5625,0 0,-69.5 -69.5,0 0,-21.5625 69.5,0 0,-69.59375 21.5625,0 0,69.59375 69.625,0 z"
         transform="translate(0,52.362183)"
         id="path3066"
         style="fill:#21f322;fill-opacity:1;stroke:none" />
    </g>
  </g>
</svg>
